<svg id="visual" viewBox="0 0 960 150" width="960" height="150" xmlns="http://www.w3.org/2000/svg" xmlns:xlink="http://www.w3.org/1999/xlink" version="1.1"><rect x="0" y="0" width="960" height="150" fill="#44515c"></rect><path d="M0 48L13.3 47.3C26.7 46.7 53.3 45.3 80 48.7C106.7 52 133.3 60 160 62.8C186.7 65.7 213.3 63.3 240 61C266.7 58.7 293.3 56.3 320 54.7C346.7 53 373.3 52 400 52.2C426.7 52.3 453.3 53.7 480 53.7C506.7 53.7 533.3 52.3 560 52.7C586.7 53 613.3 55 640 55.7C666.7 56.3 693.3 55.7 720 54.3C746.7 53 773.3 51 800 49.3C826.7 47.7 853.3 46.3 880 48.7C906.7 51 933.3 57 946.7 60L960 63L960 0L946.7 0C933.3 0 906.7 0 880 0C853.3 0 826.7 0 800 0C773.3 0 746.7 0 720 0C693.3 0 666.7 0 640 0C613.3 0 586.7 0 560 0C533.3 0 506.7 0 480 0C453.3 0 426.7 0 400 0C373.3 0 346.7 0 320 0C293.3 0 266.7 0 240 0C213.3 0 186.7 0 160 0C133.3 0 106.7 0 80 0C53.3 0 26.7 0 13.3 0L0 0Z" fill="#eeeeee"></path><path d="M0 38L13.3 37.5C26.7 37 53.3 36 80 36C106.7 36 133.3 37 160 38.8C186.7 40.7 213.3 43.3 240 43.7C266.7 44 293.3 42 320 42.5C346.7 43 373.3 46 400 48.7C426.7 51.3 453.3 53.7 480 51.8C506.7 50 533.3 44 560 41.5C586.7 39 613.3 40 640 42.2C666.7 44.3 693.3 47.7 720 46.7C746.7 45.7 773.3 40.3 800 38.3C826.7 36.3 853.3 37.7 880 39.3C906.7 41 933.3 43 946.7 44L960 45L960 0L946.7 0C933.3 0 906.7 0 880 0C853.3 0 826.7 0 800 0C773.3 0 746.7 0 720 0C693.3 0 666.7 0 640 0C613.3 0 586.7 0 560 0C533.3 0 506.7 0 480 0C453.3 0 426.7 0 400 0C373.3 0 346.7 0 320 0C293.3 0 266.7 0 240 0C213.3 0 186.7 0 160 0C133.3 0 106.7 0 80 0C53.3 0 26.7 0 13.3 0L0 0Z" fill="#b5b6b8"></path><path d="M0 44L13.3 42.3C26.7 40.7 53.3 37.3 80 37.3C106.7 37.3 133.3 40.7 160 39.8C186.7 39 213.3 34 240 33.7C266.7 33.3 293.3 37.7 320 38.5C346.7 39.3 373.3 36.7 400 36.5C426.7 36.3 453.3 38.7 480 39C506.7 39.3 533.3 37.7 560 36.7C586.7 35.7 613.3 35.3 640 34.2C666.7 33 693.3 31 720 30.3C746.7 29.7 773.3 30.3 800 31.2C826.7 32 853.3 33 880 32.2C906.7 31.3 933.3 28.7 946.7 27.3L960 26L960 0L946.7 0C933.3 0 906.7 0 880 0C853.3 0 826.7 0 800 0C773.3 0 746.7 0 720 0C693.3 0 666.7 0 640 0C613.3 0 586.7 0 560 0C533.3 0 506.7 0 480 0C453.3 0 426.7 0 400 0C373.3 0 346.7 0 320 0C293.3 0 266.7 0 240 0C213.3 0 186.7 0 160 0C133.3 0 106.7 0 80 0C53.3 0 26.7 0 13.3 0L0 0Z" fill="#808185"></path><path d="M0 28L13.3 26.2C26.7 24.3 53.3 20.7 80 20C106.7 19.3 133.3 21.7 160 24C186.7 26.3 213.3 28.7 240 28.7C266.7 28.7 293.3 26.3 320 26C346.7 25.7 373.3 27.3 400 26.8C426.7 26.3 453.3 23.7 480 22.5C506.7 21.3 533.3 21.7 560 21.7C586.7 21.7 613.3 21.3 640 21.7C666.7 22 693.3 23 720 24.8C746.7 26.7 773.3 29.3 800 30C826.7 30.7 853.3 29.3 880 28.2C906.7 27 933.3 26 946.7 25.5L960 25L960 0L946.7 0C933.3 0 906.7 0 880 0C853.3 0 826.7 0 800 0C773.3 0 746.7 0 720 0C693.3 0 666.7 0 640 0C613.3 0 586.7 0 560 0C533.3 0 506.7 0 480 0C453.3 0 426.7 0 400 0C373.3 0 346.7 0 320 0C293.3 0 266.7 0 240 0C213.3 0 186.7 0 160 0C133.3 0 106.7 0 80 0C53.3 0 26.7 0 13.3 0L0 0Z" fill="#4e5055"></path><path d="M0 10L13.3 11.5C26.7 13 53.3 16 80 16.8C106.7 17.7 133.3 16.3 160 16.2C186.7 16 213.3 17 240 16.8C266.7 16.7 293.3 15.3 320 14.3C346.7 13.3 373.3 12.7 400 12.8C426.7 13 453.3 14 480 15C506.7 16 533.3 17 560 16.3C586.7 15.7 613.3 13.3 640 13.5C666.7 13.7 693.3 16.3 720 16.7C746.7 17 773.3 15 800 13.5C826.7 12 853.3 11 880 10.3C906.7 9.7 933.3 9.3 946.7 9.2L960 9L960 0L946.7 0C933.3 0 906.7 0 880 0C853.3 0 826.7 0 800 0C773.3 0 746.7 0 720 0C693.3 0 666.7 0 640 0C613.3 0 586.7 0 560 0C533.3 0 506.7 0 480 0C453.3 0 426.7 0 400 0C373.3 0 346.7 0 320 0C293.3 0 266.7 0 240 0C213.3 0 186.7 0 160 0C133.3 0 106.7 0 80 0C53.3 0 26.7 0 13.3 0L0 0Z" fill="#212429"></path></svg>