<svg id="visual" viewBox="0 0 960 150" width="960" height="150" xmlns="http://www.w3.org/2000/svg" xmlns:xlink="http://www.w3.org/1999/xlink" version="1.1"><rect x="0" y="0" width="960" height="150" fill="#44515c"></rect><path d="M0 72L13.3 71.2C26.7 70.3 53.3 68.7 80 73.8C106.7 79 133.3 91 160 95.2C186.7 99.3 213.3 95.7 240 92.2C266.7 88.7 293.3 85.3 320 82.8C346.7 80.3 373.3 78.7 400 78.8C426.7 79 453.3 81 480 81C506.7 81 533.3 79 560 79.5C586.7 80 613.3 83 640 83.8C666.7 84.7 693.3 83.3 720 81.5C746.7 79.7 773.3 77.3 800 75C826.7 72.7 853.3 70.3 880 73.5C906.7 76.7 933.3 85.3 946.7 89.7L960 94L960 0L946.7 0C933.3 0 906.7 0 880 0C853.3 0 826.7 0 800 0C773.3 0 746.7 0 720 0C693.3 0 666.7 0 640 0C613.3 0 586.7 0 560 0C533.3 0 506.7 0 480 0C453.3 0 426.7 0 400 0C373.3 0 346.7 0 320 0C293.3 0 266.7 0 240 0C213.3 0 186.7 0 160 0C133.3 0 106.7 0 80 0C53.3 0 26.7 0 13.3 0L0 0Z" fill="#eeeeee"></path><path d="M0 58L13.3 57.2C26.7 56.3 53.3 54.7 80 54.5C106.7 54.3 133.3 55.7 160 58.3C186.7 61 213.3 65 240 65.7C266.7 66.3 293.3 63.7 320 64.5C346.7 65.3 373.3 69.7 400 73.7C426.7 77.7 453.3 81.3 480 78.5C506.7 75.7 533.3 66.3 560 62.3C586.7 58.3 613.3 59.7 640 62.8C666.7 66 693.3 71 720 69.7C746.7 68.3 773.3 60.7 800 58C826.7 55.3 853.3 57.7 880 60.2C906.7 62.7 933.3 65.3 946.7 66.7L960 68L960 0L946.7 0C933.3 0 906.7 0 880 0C853.3 0 826.7 0 800 0C773.3 0 746.7 0 720 0C693.3 0 666.7 0 640 0C613.3 0 586.7 0 560 0C533.3 0 506.7 0 480 0C453.3 0 426.7 0 400 0C373.3 0 346.7 0 320 0C293.3 0 266.7 0 240 0C213.3 0 186.7 0 160 0C133.3 0 106.7 0 80 0C53.3 0 26.7 0 13.3 0L0 0Z" fill="#b5b6b8"></path><path d="M0 67L13.3 64.5C26.7 62 53.3 57 80 57C106.7 57 133.3 62 160 60.5C186.7 59 213.3 51 240 50.5C266.7 50 293.3 57 320 58.3C346.7 59.7 373.3 55.3 400 55C426.7 54.7 453.3 58.3 480 59C506.7 59.7 533.3 57.3 560 55.8C586.7 54.3 613.3 53.7 640 51.8C666.7 50 693.3 47 720 46C746.7 45 773.3 46 800 47.3C826.7 48.7 853.3 50.3 880 49C906.7 47.7 933.3 43.3 946.7 41.2L960 39L960 0L946.7 0C933.3 0 906.7 0 880 0C853.3 0 826.7 0 800 0C773.3 0 746.7 0 720 0C693.3 0 666.7 0 640 0C613.3 0 586.7 0 560 0C533.3 0 506.7 0 480 0C453.3 0 426.7 0 400 0C373.3 0 346.7 0 320 0C293.3 0 266.7 0 240 0C213.3 0 186.7 0 160 0C133.3 0 106.7 0 80 0C53.3 0 26.7 0 13.3 0L0 0Z" fill="#808185"></path><path d="M0 43L13.3 40.2C26.7 37.3 53.3 31.7 80 30.5C106.7 29.3 133.3 32.7 160 36.2C186.7 39.7 213.3 43.3 240 43.3C266.7 43.3 293.3 39.7 320 39.3C346.7 39 373.3 42 400 41.3C426.7 40.7 453.3 36.3 480 34.5C506.7 32.7 533.3 33.3 560 33.3C586.7 33.3 613.3 32.7 640 33.2C666.7 33.7 693.3 35.3 720 38C746.7 40.7 773.3 44.3 800 45.2C826.7 46 853.3 44 880 42.3C906.7 40.7 933.3 39.3 946.7 38.7L960 38L960 0L946.7 0C933.3 0 906.7 0 880 0C853.3 0 826.7 0 800 0C773.3 0 746.7 0 720 0C693.3 0 666.7 0 640 0C613.3 0 586.7 0 560 0C533.3 0 506.7 0 480 0C453.3 0 426.7 0 400 0C373.3 0 346.7 0 320 0C293.3 0 266.7 0 240 0C213.3 0 186.7 0 160 0C133.3 0 106.7 0 80 0C53.3 0 26.7 0 13.3 0L0 0Z" fill="#4e5055"></path><path d="M0 16L13.3 18C26.7 20 53.3 24 80 25.3C106.7 26.7 133.3 25.3 160 25.3C186.7 25.3 213.3 26.7 240 26.3C266.7 26 293.3 24 320 22.5C346.7 21 373.3 20 400 20.2C426.7 20.3 453.3 21.7 480 23C506.7 24.3 533.3 25.7 560 24.7C586.7 23.7 613.3 20.3 640 20.7C666.7 21 693.3 25 720 25.7C746.7 26.3 773.3 23.7 800 21.5C826.7 19.3 853.3 17.7 880 16.7C906.7 15.7 933.3 15.3 946.7 15.2L960 15L960 0L946.7 0C933.3 0 906.7 0 880 0C853.3 0 826.7 0 800 0C773.3 0 746.7 0 720 0C693.3 0 666.7 0 640 0C613.3 0 586.7 0 560 0C533.3 0 506.7 0 480 0C453.3 0 426.7 0 400 0C373.3 0 346.7 0 320 0C293.3 0 266.7 0 240 0C213.3 0 186.7 0 160 0C133.3 0 106.7 0 80 0C53.3 0 26.7 0 13.3 0L0 0Z" fill="#212429"></path></svg>