<svg id="visual" viewBox="0 0 960 300" width="960" height="300" xmlns="http://www.w3.org/2000/svg" xmlns:xlink="http://www.w3.org/1999/xlink" version="1.1"><rect x="0" y="0" width="960" height="300" fill="#44515c"></rect><path d="M0 80L13.3 79C26.7 78 53.3 76 80 81.7C106.7 87.3 133.3 100.7 160 105.3C186.7 110 213.3 106 240 102.2C266.7 98.3 293.3 94.7 320 92C346.7 89.3 373.3 87.7 400 87.8C426.7 88 453.3 90 480 89.8C506.7 89.7 533.3 87.3 560 87.8C586.7 88.3 613.3 91.7 640 92.8C666.7 94 693.3 93 720 91C746.7 89 773.3 86 800 83.2C826.7 80.3 853.3 77.7 880 81.3C906.7 85 933.3 95 946.7 100L960 105L960 0L946.7 0C933.3 0 906.7 0 880 0C853.3 0 826.7 0 800 0C773.3 0 746.7 0 720 0C693.3 0 666.7 0 640 0C613.3 0 586.7 0 560 0C533.3 0 506.7 0 480 0C453.3 0 426.7 0 400 0C373.3 0 346.7 0 320 0C293.3 0 266.7 0 240 0C213.3 0 186.7 0 160 0C133.3 0 106.7 0 80 0C53.3 0 26.7 0 13.3 0L0 0Z" fill="#eeeeee"></path><path d="M0 65L13.3 64C26.7 63 53.3 61 80 60.8C106.7 60.7 133.3 62.3 160 65.3C186.7 68.3 213.3 72.7 240 73.3C266.7 74 293.3 71 320 71.8C346.7 72.7 373.3 77.3 400 81.7C426.7 86 453.3 90 480 86.8C506.7 83.7 533.3 73.3 560 69C586.7 64.7 613.3 66.3 640 70C666.7 73.7 693.3 79.3 720 77.8C746.7 76.3 773.3 67.7 800 64.5C826.7 61.3 853.3 63.7 880 66.3C906.7 69 933.3 72 946.7 73.5L960 75L960 0L946.7 0C933.3 0 906.7 0 880 0C853.3 0 826.7 0 800 0C773.3 0 746.7 0 720 0C693.3 0 666.7 0 640 0C613.3 0 586.7 0 560 0C533.3 0 506.7 0 480 0C453.3 0 426.7 0 400 0C373.3 0 346.7 0 320 0C293.3 0 266.7 0 240 0C213.3 0 186.7 0 160 0C133.3 0 106.7 0 80 0C53.3 0 26.7 0 13.3 0L0 0Z" fill="#b5b6b8"></path><path d="M0 75L13.3 72.2C26.7 69.3 53.3 63.7 80 63.5C106.7 63.3 133.3 68.7 160 67C186.7 65.3 213.3 56.7 240 56.2C266.7 55.7 293.3 63.3 320 64.8C346.7 66.3 373.3 61.7 400 61.3C426.7 61 453.3 65 480 65.7C506.7 66.3 533.3 63.7 560 62C586.7 60.3 613.3 59.7 640 57.7C666.7 55.7 693.3 52.3 720 51.2C746.7 50 773.3 51 800 52.5C826.7 54 853.3 56 880 54.5C906.7 53 933.3 48 946.7 45.5L960 43L960 0L946.7 0C933.3 0 906.7 0 880 0C853.3 0 826.7 0 800 0C773.3 0 746.7 0 720 0C693.3 0 666.7 0 640 0C613.3 0 586.7 0 560 0C533.3 0 506.7 0 480 0C453.3 0 426.7 0 400 0C373.3 0 346.7 0 320 0C293.3 0 266.7 0 240 0C213.3 0 186.7 0 160 0C133.3 0 106.7 0 80 0C53.3 0 26.7 0 13.3 0L0 0Z" fill="#808185"></path><path d="M0 48L13.3 44.8C26.7 41.7 53.3 35.3 80 34C106.7 32.7 133.3 36.3 160 40.2C186.7 44 213.3 48 240 48C266.7 48 293.3 44 320 43.7C346.7 43.3 373.3 46.7 400 46C426.7 45.3 453.3 40.7 480 38.5C506.7 36.3 533.3 36.7 560 36.5C586.7 36.3 613.3 35.7 640 36.3C666.7 37 693.3 39 720 42.2C746.7 45.3 773.3 49.7 800 50.7C826.7 51.7 853.3 49.3 880 47.5C906.7 45.7 933.3 44.3 946.7 43.7L960 43L960 0L946.7 0C933.3 0 906.7 0 880 0C853.3 0 826.7 0 800 0C773.3 0 746.7 0 720 0C693.3 0 666.7 0 640 0C613.3 0 586.7 0 560 0C533.3 0 506.7 0 480 0C453.3 0 426.7 0 400 0C373.3 0 346.7 0 320 0C293.3 0 266.7 0 240 0C213.3 0 186.7 0 160 0C133.3 0 106.7 0 80 0C53.3 0 26.7 0 13.3 0L0 0Z" fill="#4e5055"></path><path d="M0 18L13.3 20.3C26.7 22.7 53.3 27.3 80 28.7C106.7 30 133.3 28 160 27.8C186.7 27.7 213.3 29.3 240 29C266.7 28.7 293.3 26.3 320 24.7C346.7 23 373.3 22 400 22.2C426.7 22.3 453.3 23.7 480 25.2C506.7 26.7 533.3 28.3 560 27.3C586.7 26.3 613.3 22.7 640 23C666.7 23.3 693.3 27.7 720 28.3C746.7 29 773.3 26 800 23.7C826.7 21.3 853.3 19.7 880 18.5C906.7 17.3 933.3 16.7 946.7 16.3L960 16L960 0L946.7 0C933.3 0 906.7 0 880 0C853.3 0 826.7 0 800 0C773.3 0 746.7 0 720 0C693.3 0 666.7 0 640 0C613.3 0 586.7 0 560 0C533.3 0 506.7 0 480 0C453.3 0 426.7 0 400 0C373.3 0 346.7 0 320 0C293.3 0 266.7 0 240 0C213.3 0 186.7 0 160 0C133.3 0 106.7 0 80 0C53.3 0 26.7 0 13.3 0L0 0Z" fill="#212429"></path></svg>