<svg id="visual" viewBox="0 0 960 150" width="960" height="150" xmlns="http://www.w3.org/2000/svg" xmlns:xlink="http://www.w3.org/1999/xlink" version="1.1"><rect x="0" y="0" width="960" height="150" fill="#ffffff"></rect><path d="M0 80L13.3 78.7C26.7 77.3 53.3 74.7 80 74.5C106.7 74.3 133.3 76.7 160 78.3C186.7 80 213.3 81 240 80.7C266.7 80.3 293.3 78.7 320 80.5C346.7 82.3 373.3 87.7 400 87.8C426.7 88 453.3 83 480 78.3C506.7 73.7 533.3 69.3 560 73C586.7 76.7 613.3 88.3 640 90.3C666.7 92.3 693.3 84.7 720 83.3C746.7 82 773.3 87 800 89.5C826.7 92 853.3 92 880 90.2C906.7 88.3 933.3 84.7 946.7 82.8L960 81L960 0L946.7 0C933.3 0 906.7 0 880 0C853.3 0 826.7 0 800 0C773.3 0 746.7 0 720 0C693.3 0 666.7 0 640 0C613.3 0 586.7 0 560 0C533.3 0 506.7 0 480 0C453.3 0 426.7 0 400 0C373.3 0 346.7 0 320 0C293.3 0 266.7 0 240 0C213.3 0 186.7 0 160 0C133.3 0 106.7 0 80 0C53.3 0 26.7 0 13.3 0L0 0Z" fill="#bebebe"></path><path d="M0 59L13.3 63.3C26.7 67.7 53.3 76.3 80 75.2C106.7 74 133.3 63 160 60.7C186.7 58.3 213.3 64.7 240 67.8C266.7 71 293.3 71 320 70.3C346.7 69.7 373.3 68.3 400 67.7C426.7 67 453.3 67 480 66.3C506.7 65.7 533.3 64.3 560 67C586.7 69.7 613.3 76.3 640 77.2C666.7 78 693.3 73 720 68.7C746.7 64.3 773.3 60.7 800 62.8C826.7 65 853.3 73 880 72.5C906.7 72 933.3 63 946.7 58.5L960 54L960 0L946.7 0C933.3 0 906.7 0 880 0C853.3 0 826.7 0 800 0C773.3 0 746.7 0 720 0C693.3 0 666.7 0 640 0C613.3 0 586.7 0 560 0C533.3 0 506.7 0 480 0C453.3 0 426.7 0 400 0C373.3 0 346.7 0 320 0C293.3 0 266.7 0 240 0C213.3 0 186.7 0 160 0C133.3 0 106.7 0 80 0C53.3 0 26.7 0 13.3 0L0 0Z" fill="#939496"></path><path d="M0 50L13.3 49.3C26.7 48.7 53.3 47.3 80 46.5C106.7 45.7 133.3 45.3 160 47.3C186.7 49.3 213.3 53.7 240 52.8C266.7 52 293.3 46 320 43C346.7 40 373.3 40 400 42.5C426.7 45 453.3 50 480 53.7C506.7 57.3 533.3 59.7 560 60.3C586.7 61 613.3 60 640 57.2C666.7 54.3 693.3 49.7 720 47.3C746.7 45 773.3 45 800 47.2C826.7 49.3 853.3 53.7 880 55.7C906.7 57.7 933.3 57.3 946.7 57.2L960 57L960 0L946.7 0C933.3 0 906.7 0 880 0C853.3 0 826.7 0 800 0C773.3 0 746.7 0 720 0C693.3 0 666.7 0 640 0C613.3 0 586.7 0 560 0C533.3 0 506.7 0 480 0C453.3 0 426.7 0 400 0C373.3 0 346.7 0 320 0C293.3 0 266.7 0 240 0C213.3 0 186.7 0 160 0C133.3 0 106.7 0 80 0C53.3 0 26.7 0 13.3 0L0 0Z" fill="#6a6c6f"></path><path d="M0 26L13.3 28.8C26.7 31.7 53.3 37.3 80 38.7C106.7 40 133.3 37 160 35.2C186.7 33.3 213.3 32.7 240 31.3C266.7 30 293.3 28 320 30.3C346.7 32.7 373.3 39.3 400 42C426.7 44.7 453.3 43.3 480 40.8C506.7 38.3 533.3 34.7 560 35.8C586.7 37 613.3 43 640 44.8C666.7 46.7 693.3 44.3 720 40.8C746.7 37.3 773.3 32.7 800 32.8C826.7 33 853.3 38 880 40.7C906.7 43.3 933.3 43.7 946.7 43.8L960 44L960 0L946.7 0C933.3 0 906.7 0 880 0C853.3 0 826.7 0 800 0C773.3 0 746.7 0 720 0C693.3 0 666.7 0 640 0C613.3 0 586.7 0 560 0C533.3 0 506.7 0 480 0C453.3 0 426.7 0 400 0C373.3 0 346.7 0 320 0C293.3 0 266.7 0 240 0C213.3 0 186.7 0 160 0C133.3 0 106.7 0 80 0C53.3 0 26.7 0 13.3 0L0 0Z" fill="#44464b"></path><path d="M0 20L13.3 21.7C26.7 23.3 53.3 26.7 80 28.3C106.7 30 133.3 30 160 29.3C186.7 28.7 213.3 27.3 240 25.5C266.7 23.7 293.3 21.3 320 21.8C346.7 22.3 373.3 25.7 400 25.2C426.7 24.7 453.3 20.3 480 18.2C506.7 16 533.3 16 560 16.7C586.7 17.3 613.3 18.7 640 19C666.7 19.3 693.3 18.7 720 17.7C746.7 16.7 773.3 15.3 800 16C826.7 16.7 853.3 19.3 880 19.3C906.7 19.3 933.3 16.7 946.7 15.3L960 14L960 0L946.7 0C933.3 0 906.7 0 880 0C853.3 0 826.7 0 800 0C773.3 0 746.7 0 720 0C693.3 0 666.7 0 640 0C613.3 0 586.7 0 560 0C533.3 0 506.7 0 480 0C453.3 0 426.7 0 400 0C373.3 0 346.7 0 320 0C293.3 0 266.7 0 240 0C213.3 0 186.7 0 160 0C133.3 0 106.7 0 80 0C53.3 0 26.7 0 13.3 0L0 0Z" fill="#212429"></path></svg>