<svg id="visual" viewBox="0 0 960 150" width="960" height="150" xmlns="http://www.w3.org/2000/svg" xmlns:xlink="http://www.w3.org/1999/xlink" version="1.1"><rect x="0" y="0" width="960" height="150" fill="#212429"></rect><path d="M0 97L16 98.8C32 100.7 64 104.3 96 106.2C128 108 160 108 192 107.2C224 106.3 256 104.7 288 103.5C320 102.3 352 101.7 384 105.8C416 110 448 119 480 123C512 127 544 126 576 123.3C608 120.7 640 116.3 672 115.3C704 114.3 736 116.7 768 117.2C800 117.7 832 116.3 864 116.8C896 117.3 928 119.7 944 120.8L960 122L960 151L944 151C928 151 896 151 864 151C832 151 800 151 768 151C736 151 704 151 672 151C640 151 608 151 576 151C544 151 512 151 480 151C448 151 416 151 384 151C352 151 320 151 288 151C256 151 224 151 192 151C160 151 128 151 96 151C64 151 32 151 16 151L0 151Z" fill="#000000" stroke-linecap="round" stroke-linejoin="miter"></path></svg>